/* XPM */
static char *_eaeefc3fd1049c4861c9b7cf7e52dc4mqsAfBr7CHQYjUbc[] = {
/* columns rows colors chars-per-pixel */
"32 32 140 2 ",
"   c #4D2A2B",
".  c #542F2D",
"X  c #5C312F",
"o  c #5C3431",
"O  c #603631",
"+  c #663934",
"@  c #6D3D35",
"#  c #653E38",
"$  c #713F36",
"%  c #793F35",
"&  c #67423C",
"*  c #6D423B",
"=  c #754136",
"-  c #794035",
";  c #744239",
":  c #7C453A",
">  c #7A493D",
",  c #694541",
"<  c #754A42",
"1  c #7A4E43",
"2  c #7D5146",
"3  c #7C554C",
"4  c #7E5950",
"5  c #834639",
"6  c #884639",
"7  c #864B3C",
"8  c #8D4C3C",
"9  c #924E3E",
"0  c #8E513F",
"q  c #96563F",
"w  c #9A513E",
"e  c #A5543F",
"r  c #875141",
"t  c #885445",
"y  c #895748",
"u  c #89594D",
"i  c #945441",
"p  c #9F5741",
"a  c #965943",
"s  c #9D5B43",
"d  c #975D48",
"f  c #8A5D51",
"g  c #A55540",
"h  c #A85641",
"j  c #A25A42",
"k  c #AE5942",
"l  c #B65C43",
"z  c #BC5F44",
"x  c #996451",
"c  c #926659",
"v  c #9A6A59",
"b  c #A46347",
"n  c #AA6246",
"m  c #A46449",
"M  c #AC6648",
"N  c #A6684D",
"B  c #B56145",
"V  c #BE6245",
"C  c #B16448",
"Z  c #B46D4B",
"A  c #BA6848",
"S  c #B7724F",
"D  c #BE714D",
"F  c #A66C53",
"G  c #A67159",
"H  c #AA745D",
"J  c #B67454",
"K  c #B87756",
"L  c #B77859",
"P  c #B97C5C",
"I  c #9E7162",
"U  c #A07767",
"Y  c #A77866",
"T  c #AA7A66",
"R  c #A77F6E",
"E  c #A97D6A",
"W  c #C16447",
"Q  c #C36748",
"!  c #C56949",
"~  c #CA6E4B",
"^  c #C3734E",
"/  c #CD734E",
"(  c #D0754E",
")  c #C47850",
"_  c #CB7951",
"`  c #C57F5B",
"'  c #D07750",
"]  c #D57B51",
"[  c #D97F53",
"{  c #D67F58",
"}  c #BA8164",
"|  c #BB856B",
" . c #B28773",
".. c #B78873",
"X. c #BD8C73",
"o. c #BE917B",
"O. c #D38255",
"+. c #DC8354",
"@. c #D48458",
"#. c #DB855C",
"$. c #E18856",
"%. c #E58D59",
"&. c #E8915E",
"*. c #C98E6E",
"=. c #D68B60",
"-. c #DF8C62",
";. c #D69168",
":. c #C0957E",
">. c #DA9C78",
",. c #E08C60",
"<. c #E49367",
"1. c #E59667",
"2. c #E59264",
"3. c #E39369",
"4. c #E49B6F",
"5. c #E69A6F",
"6. c #E79A6F",
"7. c #EA9968",
"8. c #E8996C",
"9. c #E79D70",
"0. c #EDA071",
"q. c #EAA176",
"w. c #E5A279",
"e. c #EFA77C",
"r. c #ECA87F",
"t. c #CD9D83",
"y. c #DBA280",
"u. c #D6A98E",
"i. c #DEAE91",
"p. c #EAAB83",
"a. c #EFAE86",
"s. c #F0AE84",
"d. c #E9B08B",
"f. c #ECB18C",
"g. c #F2B58E",
"h. c #EBB794",
"j. c #E6B99B",
"k. c #EFBF9E",
"l. c #F5BD97",
"z. c #F7C4A0",
/* pixels */
"W V V V V V V V V V V V V V e %   > S &.[ ! V V V V V V V V V V ",
"V z z z z z z z z z z z z z e %   = M [ / W z z z z z z z z z z ",
"V z z z z z z z z z z z z z e %   @ j ~ Q V z z z z z z z z z z ",
"l l l l l l l l l l l l l l e -   @ 9 l l l l l l l l l l l l l ",
"w w w w w w w w w w w w w w 8 = o @ 7 w w w w w w w w w w w 9 9 ",
": : : : : : : : : : : : : : : ; @ @ ; : : : : : : : : : : : : @ ",
"7 7 5 : ; @ * 1 u y t 7 7 7 7 7 7 7 7 7 7 5 : ; @ ; 2 u t r > @ ",
"Z M j 9 : + * c ..| L Z Z Z Z Z Z Z Z Z n p 8 = o 1 I X.} J M s ",
"%.] ! l 6 X , R j.f.9.%.%.%.%.%.%.%.%.$.' V e -   4 o.k.p.1.+./ ",
"+.( Q l 6 X & T d.r.<.+.+.+.+.+.+.+.+.[ / W e %   3 X.g.q.,.] ~ ",
"/ Q W l 6 X # F 4.<.{ ~ ~ ~ ~ ~ ~ ~ ~ ~ Q V e %   1 P 0.-.' ~ W ",
"V z z l 6 X + b +.[ ~ z z z z z z z z z z z e %   : Z %.] Q z z ",
"V z z l 6 X O q / / Q z z z z z z z z z z z e %   = n ] ~ W z z ",
"V z z l 6 X X 8 V W V z z z z z z z z z z z e %   @ w Q W V z z ",
"k k k h 5 O O 5 h k k k k k k k k k k k k k w = . @ 8 k k k k k ",
"8 9 9 8 : + + : 8 9 9 9 9 9 9 9 9 9 9 9 9 9 7 = O @ 5 9 9 9 9 9 ",
"; ; ; ; ; @ @ ; ; ; ; ; ; ; ; ; ; ; ; ; ; ; ; ; @ ; ; ; ; ; ; ; ",
"a a a a a a a a a a a a i 8 5 = + < u v x d a a a a a a a a i 0 ",
") ) ) ) ) ) ) ) ) ) ) ^ Z k 9 = X 3 E t.*.` ) ) ) ) ) ) ) ) D C ",
"&.%.%.%.%.%.%.%.%.%.%.%.] Q e %   4 :.z.s.7.%.%.%.%.%.%.%.%.+./ ",
"[ ] ] ] ] ] ] ] ] ] ] ] ~ W e %   2 | s.4.#.] ] ] ] ] ] ] ] ( Q ",
"! Q Q Q Q Q Q Q Q Q Q Q W V e %   > K 7.#./ Q Q Q Q Q Q Q Q Q W ",
"V z z z z z z z z z z z z z e %   ; C +.( Q z z z z z z z z z z ",
"V z z z z z z z z z z z z z e %   = j / Q W z z z z z z z z z z ",
"z z z z z z z z z z z z z z e %   @ w V V V z z z z z z z z z z ",
"g g g g g g g g g g g g g g 9 = X @ 7 g g g g g g g g g g g e w ",
"7 7 7 7 7 7 7 7 7 7 7 7 7 7 5 = + @ : 7 7 7 7 7 7 7 7 7 7 7 5 = ",
"; ; ; ; ; @ * ; > > > : : : : : : : : ; ; ; ; ; @ ; ; > > : ; O ",
"m s i 8 : + * f Y H F b b b b b b b b b s i 7 = O < c T H N s 8 ",
"@./ A h 5 O , U u.y.;.O.O.O.O.O.O.O.O.] ^ B w = . 3  .i.>.=._ A ",
"%.] ~ l 6 X & E h.a.8.$.$.$.$.$.$.$.$.+.( Q e %   3 o.l.e.<.+./ ",
"' ~ W l 6 X & G w.4.#.( ( ( ( ( ( ( ( / Q W e %   2 } e.3.{ / Q "
};
