/* XPM */
static char *aebcef1fab0f4ac59ff5445d81b7bf5au9z5E1a9dqsyzcWL[] = {
/* columns rows colors chars-per-pixel */
"20 20 126 2 ",
"   c #2D5E55",
".  c #2D5D58",
"X  c #325E56",
"o  c #345E5B",
"O  c #2E6355",
"+  c #2E635A",
"@  c #2E6B5A",
"#  c #326356",
"$  c #326D53",
"%  c #33645A",
"&  c #3A625A",
"*  c #346B5B",
"=  c #396D5E",
"-  c #2F7056",
";  c #2E735C",
":  c #34725E",
">  c #3B745E",
",  c #30795E",
"<  c #315F61",
"1  c #366E61",
"2  c #3A6E63",
"3  c #367362",
"4  c #3B7565",
"5  c #387664",
"6  c #397665",
"7  c #387765",
"8  c #397767",
"9  c #3D7565",
"0  c #3C7666",
"q  c #3C7766",
"w  c #3A7462",
"e  c #347861",
"r  c #367A63",
"t  c #367B63",
"y  c #337F62",
"u  c #377C63",
"i  c #357A65",
"p  c #367A65",
"a  c #337C66",
"s  c #367963",
"d  c #387A61",
"f  c #397862",
"g  c #3A7862",
"h  c #3B7963",
"j  c #3B7B63",
"k  c #3D7861",
"l  c #3E7B63",
"z  c #3A7C61",
"x  c #397F60",
"c  c #3B7C62",
"v  c #3A7D62",
"b  c #3A7C63",
"n  c #3A7D63",
"m  c #3B7D63",
"M  c #387F62",
"N  c #3B7F63",
"B  c #3A7864",
"V  c #387A65",
"C  c #3A7A66",
"Z  c #3C7A64",
"A  c #3D7A65",
"S  c #3C7966",
"D  c #3C7867",
"F  c #3D7B66",
"G  c #3C7B67",
"H  c #3E7B66",
"J  c #397C65",
"K  c #3B7C64",
"L  c #3A7D65",
"P  c #3B7F64",
"I  c #3B7F65",
"U  c #387E66",
"Y  c #3C7E65",
"T  c #3C7F65",
"R  c #3E7E64",
"E  c #3D7C66",
"W  c #3C7D67",
"Q  c #3E7D66",
"!  c #3C7F66",
"~  c #3D7E67",
"^  c #3C7F67",
"/  c #3D7F67",
"(  c #3F7F66",
")  c #3E7E67",
"_  c #3B7C64",
"`  c #397668",
"'  c #38756A",
"]  c #3C766C",
"[  c #397968",
"{  c #3A7868",
"}  c #3A7C68",
"|  c #397E68",
" . c #3A7D6B",
".. c #3F7D69",
"X. c #3C7F68",
"o. c #3E7E68",
"O. c #3C7D6A",
"+. c #3C7D6B",
"@. c #3D7E6A",
"#. c #3D7F6B",
"$. c #3D7B6C",
"%. c #3F7A6D",
"&. c #3B7F6C",
"*. c #3C7E6A",
"=. c #417D67",
"-. c #417E66",
";. c #417963",
":. c #417D69",
">. c #407D6A",
",. c #437C6B",
"<. c #437B6E",
"1. c #427E6D",
"2. c #427B6A",
"3. c #427D72",
"4. c #3B8066",
"5. c #3D8066",
"6. c #3C8067",
"7. c #3C8264",
"8. c #378268",
"9. c #37806A",
"0. c #3D8168",
"q. c #3B816A",
"w. c #408067",
"e. c #408169",
"r. c #40846B",
"t. c #448068",
/* pixels */
"1 + + . X X X # % 3 w.l k * % #   X X # ",
"O + + + # X % # * [ M > * O O   O # # % ",
": 3 3 w # X # # * [ K ~ j 3 w 3 : %   O ",
"M 5.~ ..* # % X % w M M ~ ....&.a * # * ",
"M M K ..D 1 %   + % - M M ~ ......D f j ",
"~ f f 4 B B 9 2 2 3 > M : : : 3 w 3 f ~ ",
"2 % % o t y u B p p t K @ O % % % O * >.",
"% % X X f > * % * * f 4 4 1 # X o   * 1.",
"# % * % 9 1 # X X   * 3 $.] % o o   % 2.",
"* 4 G ..@ + % o < < # % ` ` % o o   * 3.",
">.1.9 *       . .   * > =.D f 3 4 w 2 % ",
"K [ 5 1 * * * * * * * l =.~ 5.K  .4 2 # ",
"8.8. .$.B j j j j j j ~ e.j K 5.t @ O O ",
"D 9 w 2 D K K r.0.~ ~ ~ D : : f f : * * ",
"j : % # D K K K B t f 3 * O # * l ~ 0.+.",
"0.p 5 2...K K t 3 : * * % # # % $ j  .5 ",
"~ 3 3 4 M 5.7.j * # % % # # # O > t B 9 ",
"f * # # > l j * # X o o % # % * j f = % ",
"# X & & ;.t.2.= % & o o # # * 3 ~ : # X ",
"+ O # # t K 4 *   %   + @ : p 8., ; @ @ "
};
