/* XPM */
static char *acf2822e6bab43808802c164cb8b9db1vNLqHqFFn85Y09Wj[] = {
/* columns rows colors chars-per-pixel */
"19 20 67 1 ",
"  c black",
". c #6A5C55",
"X c #71635A",
"o c #72645A",
"O c #74685E",
"+ c #9A8768",
"@ c #BFA37B",
"# c #E4CEA5",
"$ c #EAD5AC",
"% c #CEB283",
"& c #AA9571",
"* c #8F8974",
"= c #837C70",
"- c #D1B587",
"; c #F1DEB7",
": c #FCECCA",
"> c #FDE2A8",
", c #F7D387",
"< c #D8B164",
"1 c #AA8E5D",
"2 c #8F7D6C",
"3 c #EFDDB8",
"4 c #FDEDC7",
"5 c #FEE3A6",
"6 c #FDD888",
"7 c #FDCF6A",
"8 c #EFB850",
"9 c #B58F51",
"0 c #9F927F",
"q c #907D6E",
"w c #F5E1B8",
"e c #FEE1A3",
"r c #FDD784",
"t c #FCCC66",
"y c #F9C04F",
"u c #EEAF3F",
"i c #B2894B",
"p c #9A8A75",
"a c #8D7B68",
"s c #EBC781",
"d c #FCD37B",
"f c #FCCC65",
"g c #F8BE4C",
"h c #F3B13C",
"j c #DF9A2F",
"k c #AB7D40",
"l c #A09385",
"z c #867E72",
"x c #C09754",
"c c None",
"v c #F5BA49",
"b c #F1AE39",
"n c #E49C2B",
"m c #BF8131",
"M c #997045",
"N c #7F8380",
"B c #9B825A",
"V c #B88C47",
"C c #C48B37",
"Z c #C1852F",
"A c #B47B32",
"S c #9E794C",
"D c #85857B",
"F c #8C7A65",
"G c #956D41",
"H c #936738",
"J c #896A4A",
/* pixels */
"                   ",
"                   ",
"                   ",
"                   ",
"                   ",
"                   ",
"       .XoO        ",
"      +@#$%&*      ",
"     =-;:>,<1      ",
"     234567890     ",
"     qwertyuip     ",
"     asdfghjkl     ",
"     zxcvbnmM      ",
"     NBVCZAS       ",
"      DFGHJ        ",
"                   ",
"                   ",
"                   ",
"                   ",
"                   "
};
