/* XPM */
static char *_ae291fb83e9453aaacecfa3afbd436fF2wsGMY3CqaZWpDQ[] = {
/* columns rows colors chars-per-pixel */
"129 35 61 1 ",
"  c black",
". c #A9CBC5",
"X c #739FA2",
"o c #A9CBC5",
"O c #A9CBC5",
"+ c #452729",
"@ c #452729",
"# c #A9CBC5",
"$ c #739FA2",
"% c #F74444",
"& c #A9CBC5",
"* c #452729",
"= c white",
"- c #B60E16",
"; c #739FA2",
": c #A9CBC5",
"> c #AF4F41",
", c #F89376",
"< c #F9CBAA",
"1 c #A9CBC5",
"2 c #A9CBC5",
"3 c #452729",
"4 c #A9CBC5",
"5 c #A9CBC5",
"6 c #A9CBC5",
"7 c #338EF4",
"8 c #1F49B8",
"9 c #A9CBC5",
"0 c #F74444",
"q c #A9CBC5",
"w c #A9CBC5",
"e c #A9CBC5",
"r c #A9CBC5",
"t c #452729",
"y c #452729",
"u c white",
"i c white",
"p c white",
"a c None",
"s c #452729",
"d c #A9CBC5",
"f c #452729",
"g c #452729",
"h c #739FA2",
"j c #A9CBC5",
"k c #739FA2",
"l c #1F49B8",
"z c #A9CBC5",
"x c #739FA2",
"c c #A9CBC5",
"v c #452729",
"b c #452729",
"n c #A9CBC5",
"m c #452729",
"M c #452729",
"N c #452729",
"B c #452729",
"V c #68C6FD",
"C c #739FA2",
"Z c #739FA2",
"A c #739FA2",
/* pixels */
"                                                                                                                                 ",
"                                                                                                                                 ",
"                                                                                                                                 ",
"                                                                                                                                 ",
"                                                                                                                                 ",
"                                                                                                                                 ",
"                                                                                                                                 ",
"                                                                                                                                 ",
"                                                                                                                                 ",
"                                                                                                                                 ",
"                                                                                                                                 ",
"                                                   .    X                                                                        ",
"                                                   oO   X                                                                        ",
"                                                 +@@#   $                        @@%%%@                           @%%%%@         ",
"                                               O@%%%@#  $                        %%%%%%@                         @%%%%%%         ",
"                                              &@%%%%%*& X                        %%%%%%@                        @%%%%%=%         ",
"                                          o@%%%%%%--@@& ;                     %%%%%-%%%%@                     @%%%%--%%%@        ",
"                                          o@%%%%%-%%%%&                       @%%%-%--@@                       @%%%%%-@@         ",
"                                           :@@%%-->>,<&                       <<@@>>>,,,@                     @<@@@>>>,,@        ",
"                                          o@<<@@@>>,,,&                       <,><<>@>,>@                     @<<@<,>@,,@        ",
"                                          1@<,>@<>@>,>&                       <<,<@@@@@@                      @<<<<@@@@@         ",
"                                           &@@><<@@@@@&                        @@<<<<>===                       @@<<<<,@         ",
"                 2@@@3 4                    5@@@<<<<@6                          @>>777===                       @8>,<<,@         ",
"                9@%%%0 4                     q@8><<<@wer                        @77777===                      @887>>@@          ",
"           tyuipa%-%%%s4                    d@877777===f                       @8777@@                       @7777888@@          ",
"           g@===@%%--@aw                    :@887777===@h                      @888%8@                       @7787877-@          ",
"           :@===@-->,,aw                    :@%%%777==@j                       @8%%%--                       @77878---7@         ",
"          kl8777@<>>,,@z                    :@%%%-%%-@#                        @%%%-%-                        ,=,%%%%%7=@        ",
"          x877778@@@@@@w                      %%%%-%%%@d                        %%%%%%                        ,=@%%---@=@        ",
"          x-87778%<<,@cz                      vb-%%%%%7@;                       @%%%%%@                        @%%%%%%-,         ",
"          x--878%%@---6n                       #mMNB-%V@C                        @@%%%@@                        -%%@@--@         ",
"          x@--%%%%@---rn                           .@@@6                           @%7V@                        -%%@--@          ",
"          Z            A                            ; ;C                                                                         ",
"                                                                                                                                 ",
"                                                                                                                                 "
};
