/* XPM */
static char *d3f596881ae44f0be3c86936e9f6ea13O7E39ZQFZcrdX4Jg[] = {
/* columns rows colors chars-per-pixel */
"20 20 10 1 ",
"  c None",
". c #452729",
"X c #F74444",
"o c white",
"O c #B60E16",
"+ c #F9CBAA",
"@ c #AF4F41",
"# c #F89376",
"$ c #1F49B8",
"% c #338EF4",
/* pixels */
"                    ",
"         .XXXX.     ",
"        .XXXXXX     ",
"       .XXXXXoX     ",
"     .XXXXOOXXX.    ",
"      .XXXXXO..     ",
"     .+...@@@##.    ",
"     .++.+#@.##.    ",
"     .++++.....     ",
"       ..++++#.     ",
"       .$@#++#.     ",
"      .$$%@@..      ",
"    .%%%%$$$..      ",
"    .%%$%$%%O.      ",
"    .%%$%$OOO%.     ",
"     #o#XXXXX%o.    ",
"     #o.XXOOO.o.    ",
"      .XXXXXXO#     ",
"       OXX..OO.     ",
"       OXX.OO.      "
};
