/* XPM */
static char *_a76ba14f60e4f45a043e38266ed3013rFGJkFDyp7MkXjMU[] = {
/* columns rows colors chars-per-pixel */
"100 130 74 1 ",
"  c #1B5999",
". c #93BBEC",
"X c black",
"o c #C9AF2E",
"O c #E4C85E",
"+ c #FFEB95",
"@ c #0052BC",
"# c #D13752",
"$ c #0090FF",
"% c #E1BF1E",
"& c #FFE133",
"* c #FCFC5C",
"= c #D2A11E",
"- c #111111",
"; c #F8B898",
": c #E8A088",
"> c #001E55",
", c #F7DFB7",
"< c #B43B68",
"1 c #FF73AE",
"2 c #D45785",
"3 c #FF91BF",
"4 c #F090A0",
"5 c #6DCFF6",
"6 c #DD6496",
"7 c #FCCC94",
"8 c #FFA5CA",
"9 c #4E65A2",
"0 c #BD7D1E",
"q c gray82",
"w c #FEFEFE",
"e c #CECAE4",
"r c #FFE8F8",
"t c #EF84B0",
"y c #850434",
"u c #AD2155",
"i c #C93D6D",
"p c #1A5898",
"a c #92BAEB",
"s c #FEEA94",
"d c #E3C75D",
"f c #C8AE2D",
"g c #008FFE",
"h c #D03651",
"j c #0051BB",
"k c #E0BE1D",
"l c #FEE032",
"z c #D1A01D",
"x c #FBFB5B",
"c c #E79F87",
"v c #F7B797",
"b c #101010",
"n c #001D54",
"m c #F6DEB6",
"M c #B33A67",
"N c #FE72AD",
"B c #FE90BE",
"V c #D35684",
"C c #6CCEF5",
"Z c #EF8F9F",
"A c #DC6395",
"S c #FBCB93",
"D c #BC7C1D",
"F c #4D64A1",
"G c #FEA4C9",
"H c #FDFDFD",
"J c #D0D0D0",
"K c #FEE7F7",
"L c #CDC9E3",
"P c #EE83AF",
"I c #AC2054",
"U c #C83C6C",
"Y c #840333",
"T c #FCE404",
/* pixels */
"                                                                                                    ",
" ................................ ................................ ................................ ",
" ................................ ................................ ................................ ",
" ................................ ................................ ................................ ",
" ................................ ................................ ................................ ",
" ................................ ................................ ................................ ",
" ................................ ................................ ................................ ",
" ................................ ................................ ................................ ",
" ................................ ................................ ................................ ",
" ................................ ................................ ................................ ",
" ................................ ................................ ................................ ",
" ................................ ................................ ..............X.X.X............. ",
" ................................ ..............X.X.X............. .............XoXOX+X............ ",
" ..............X.X.X............. .............XoXOX+X............ .............X@O#+$X............ ",
" .............XoXOX+X............ .............X@O#+$X............ ............X%XXXXX............. ",
" .............X@O#+$X............ ............X%XXXXXX............ ...........X%&&%&&%X............ ",
" ............X%XXXXXX............ ...........X%&&%&&%&X........... ..........X%***=X%X%X........... ",
" ...........X%&&%&&%&X........... ..........X%***=X%X%X........... ...........X&%=-;X:X............ ",
" ..........X%***=X%X%X........... ...........X&%=-;X:X............ ...........X%XX;>,>............. ",
" ...........X&%=-;X:XX........... ...........X%XX;>,>............. ..........X&X;X,@,@X............ ",
" ...........X%XX;;,;X............ ..........X&X;X,@,@X............ .........X&%XX$;,,;X............ ",
" ..........X&X;X>>,>X............ .........X&%XX$;,,;X............ .........X%X<1<X;;X............. ",
" .........X&%XX$;,,;X............ .........X%X<1<X;;X............. .........X%X231<XX.............. ",
" .........X%X<1<X;;X1X........... .........X%X231<XX.............. ..........XX<2<4O5X............. ",
" .........X%X666%XX=6X........... ..........XX<2<4O5X............. ............-7X<=$X............. ",
" ..........XX88<%$90X............ ............-7X<=$X............. ............XqwX<X.............. ",
" ...........XXXX<%0XX............ ............XqwX<X.............. ...........X2XqwX2X............. ",
" ..........X8XerX<XrXX........... ...........X2XqwX2X............. ..........X2t2XqwX2X............ ",
" .........Xt8XerXtXeXtX.......... ..........X2t2XqwX2X............ ..........X2tt2XX2t-............ ",
" .........X2ttXerXrXt2X.......... ..........X2tt2XX2t-............ .........-2t82t2282tX........... ",
" .........X2222XeXeX22X.......... .........-2t82t2282tX........... .........-2822tt8822X........... ",
" .........XyuiiuXyXuiuX.......... ........-uuiuyuiiuyuX........... ........-uuiuyuiiuyuX........... ",
" ..........XXXXXXXXXXX........... ........-X----------X........... ........-X----------X........... ",
"ppppppppppppppppppppppppppppppppppppppppppppppppppppppppppppppppppppppppppppppppppppppppppppppppppp ",
"paaaaaaaaaaaaaaaaaaaaaaaaaaaaaaaapaaaaaaaaaaaaaaaaaaaaaaaaaaaaaaaapaaaaaaaaaaaaaaaaaaaaaaaaaaaaaaaa ",
"paaaaaaaaaaaaaaaaaaaaaaaaaaaaaaaapaaaaaaaaaaaaaaaaaaaaaaaaaaaaaaaapaaaaaaaaaaaaaaaaaaaaaaaaaaaaaaaa ",
"paaaaaaaaaaaaaaaaaaaaaaaaaaaaaaaapaaaaaaaaaaaaaaaaaaaaaaaaaaaaaaaapaaaaaaaaaaaaaaaaaaaaaaaaaaaaaaaa ",
"paaaaaaaaaaaaaaaaaaaaaaaaaaaaaaaapaaaaaaaaaaaaaaaaaaaaaaaaaaaaaaaapaaaaaaaaaaaaaaaaaaaaaaaaaaaaaaaa ",
"paaaaaaaaaaaaaaaaaaaaaaaaaaaaaaaapaaaaaaaaaaaaaaaaaaaaaaaaaaaaaaaapaaaaaaaaaaaaaaaaaaaaaaaaaaaaaaaa ",
"paaaaaaaaaaaaaaaaaaaaaaaaaaaaaaaapaaaaaaaaaaaaaaaaaaaaaaaaaaaaaaaapaaaaaaaaaaaaaaaaaaaaaaaaaaaaaaaa ",
"paaaaaaaaaaaaaaaaaaaaaaaaaaaaaaaapaaaaaaaaaaaaaaaaaaaaaaaaaaaaaaaapaaaaaaaaaaaaaaaaaaaaaaaaaaaaaaaa ",
"paaaaaaaaaaaaaaaaaaaaaaaaaaaaaaaapaaaaaaaaaaaaaaaaaaaaaaaaaaaaaaaapaaaaaaaaaaaaaaaaaaaaaaaaaaaaaaaa ",
"paaaaaaaaaaaaaaaaaaaaaaaaaaaaaaaapaaaaaaaaaaaaaaaaaaaaaaaaaaaaaaaapaaaaaaaaaaaaaaaaaaaaaaaaaaaaaaaa ",
"paaaaaaaaaaaaaaaaaaaaaaaaaaaaaaaapaaaaaaaaaaaaaaaaaaaaaaaaaaaaaaaapaaaaaaaaaaaaaaaaaaaaaaaaaaaaaaaa ",
"paaaaaaaaaaaaaaaaaaaaaaaaaaaaaaaapaaaaaaaaaaaaaXaXaXaaaaaaaaaaaaaapaaaaaaaaaaaaaaaaaaaaaaaaaaaaaaaa ",
"paaaaaaaaaaaaaaaaaaaaaaaaaaaaaaaapaaaaaaaaaaaaXsXdXfXaaaaaaaaaaaaapaaaaaaaaaaaaaXaXaXaaaaaaaaaaaaaa ",
"paaaaaaaaaaaaaXaXaXaaaaaaaaaaaaaapaaaaaaaaaaaaXgshdjXaaaaaaaaaaaaapaaaaaaaaaaaaXsXdXfXaaaaaaaaaaaaa ",
"paaaaaaaaaaaaXsXdXfXaaaaaaaaaaaaapaaaaaaaaaaaaaXXXXXkXaaaaaaaaaaaapaaaaaaaaaaaaXgshdjXaaaaaaaaaaaaa ",
"paaaaaaaaaaaaXgshdjXaaaaaaaaaaaaapaaaaaaaaaaaaXkllkllkXaaaaaaaaaaapaaaaaaaaaaaaXXXXXXkXaaaaaaaaaaaa ",
"paaaaaaaaaaaaXXXXXXkXaaaaaaaaaaaapaaaaaaaaaaaXkXkXzxxxkXaaaaaaaaaapaaaaaaaaaaaXlkllkllkXaaaaaaaaaaa ",
"paaaaaaaaaaaXlkllkllkXaaaaaaaaaaapaaaaaaaaaaaaXcXvbzklXaaaaaaaaaaapaaaaaaaaaaaXkXkXzxxxkXaaaaaaaaaa ",
"paaaaaaaaaaaXkXkXzxxxkXaaaaaaaaaapaaaaaaaaaaaaanmnvXXkXaaaaaaaaaaapaaaaaaaaaaaaXcXvbzklXaaaaaaaaaaa ",
"paaaaaaaaaaaXXcXvbzklXaaaaaaaaaaapaaaaaaaaaaaaXjmjmXvXlXaaaaaaaaaapaaaaaaaaaaaaanmnvXXkXaaaaaaaaaaa ",
"paaaaaaaaaaaaXvmvvXXkXaaaaaaaaaaapaaaaaaaaaaaaXvmmvgXXklXaaaaaaaaapaaaaaaaaaaaaXjmjmXvXlXaaaaaaaaaa ",
"paaaaaaaaaaaaXnmnnXvXlXaaaaaaaaaapaaaaaaaaaaaaaXvvXMNMXkXaaaaaaaaapaaaaaaaaaaaaXvmmvgXXklXaaaaaaaaa ",
"paaaaaaaaaaaaXvmmvgXXklXaaaaaaaaapaaaaaaaaaaaaaaXXMNBVXkXaaaaaaaaapaaaaaaaaaaaaaXvvXMNMXkXaaaaaaaaa ",
"paaaaaaaaaaaXNXvvXMNMXkXaaaaaaaaapaaaaaaaaaaaaaXCdZMVMXXaaaaaaaaaapaaaaaaaaaaaaaaXXMNBVXkXaaaaaaaaa ",
"paaaaaaaaaaaXAzXXkAAAXkXaaaaaaaaapaaaaaaaaaaaaaXgzMXSbaaaaaaaaaaaapaaaaaaaaaaaaaXCdZMVMXXaaaaaaaaaa ",
"paaaaaaaaaaaaXDFgkMGGXXaaaaaaaaaapaaaaaaaaaaaaaaXMXHJXaaaaaaaaaaaapaaaaaaaaaaaaaXgzMXSbaaaaaaaaaaaa ",
"paaaaaaaaaaaaXXDkMXXXXaaaaaaaaaaapaaaaaaaaaaaaaXVXHJXVXaaaaaaaaaaapaaaaaaaaaaaaaaXMXHJXaaaaaaaaaaaa ",
"paaaaaaaaaaaXXKXMXKLXGXaaaaaaaaaapaaaaaaaaaaaaXVXHJXVPVXaaaaaaaaaapaaaaaaaaaaaaaXVXHJXVXaaaaaaaaaaa ",
"paaaaaaaaaaXPXLXPXKLXGPXaaaaaaaaapaaaaaaaaaaaabPVXXVPPVXaaaaaaaaaapaaaaaaaaaaaaXVXHJXVPVXaaaaaaaaaa ",
"paaaaaaaaaaXVPXKXKLXPPVXaaaaaaaaapaaaaaaaaaaaXPVGVVPVGPVbaaaaaaaaapaaaaaaaaaaaabPVXXVPPVXaaaaaaaaaa ",
"paaaaaaaaaaXVVXLXLXVVVVXaaaaaaaaapaaaaaaaaaaaXVVGGPPVVGVbaaaaaaaaapaaaaaaaaaaaXPVGVVPVGPVbaaaaaaaaa ",
"paaaaaaaaaaXIUIXYXIUUIYXaaaaaaaaapaaaaaaaaaaaXIYIUUIYIUIIbaaaaaaaapaaaaaaaaaaaXIYIUUIYIUIIbaaaaaaaa ",
"paaaaaaaaaaaXXXXXXXXXXXaaaaaaaaaapaaaaaaaaaaaXbbbbbbbbbbXbaaaaaaaapaaaaaaaaaaaXbbbbbbbbbbXbaaaaaaaa ",
"ppppppppppppppppppppppppppppppppppppppppppppppppppppppppppppppppppppppppppppppppppppppppppppppppppp ",
" ................................ ................................                                  ",
" ................................ ................................                                  ",
" ................................ ................................                                  ",
" ................................ ................................                                  ",
" ................................ ................................                                  ",
" ................................ ................................                                  ",
" ................................ ................................                                  ",
" ..............X.X.X............. .............X.X.X..............                                  ",
" .............XoXOXoX............ ............XoXOXoX.............                                  ",
" .............X@O#O@X............ ............X@O#O@X.............                                  ",
" ............X%XXXXX%X........... ...........X%XXXXX%X............                                  ",
" ...........X%&&****&%X.......... ..........X%&****&&%X...........                                  ",
" ..........X%***TTT***%X......... .........X%***TTT***%X..........                                  ",
" ...........X&TTTTTTT&X.......... ..........X&TTTTTTT&X...........                                  ",
" ..........XwXTT***TTX........... ...........XTT***TTXwX..........                                  ",
" ...........X&T*****T&X.......... ..........X&T*****T&X...........                                  ",
" ..........X&%T*TTT*T%&X......... .........X&%T*TTT*T%&X..........                                  ",
" ..........X%%TTTTTTT%%X......... .........X%%TTTTTTT%%X..........                                  ",
" ...........X%%%TTT%%%X.......... ..........X%%%TTT%%%X...........                                  ",
" ............X%%%%%%%XwX......... .........XwX%%%%%%%X............                                  ",
" .............XXXXXXXeX.......... ..........XeXXXXXXX.............                                  ",
" ............Xt22222tX........... ...........Xt22222tX............                                  ",
" ............Xtt888ttX........... ...........Xtt888ttX............                                  ",
" ...........Xtt8888tttX.......... ..........Xttt8888ttX...........                                  ",
" ...........Xtt8t88tttX.......... ..........Xttt88t8ttX...........                                  ",
" ...........Xttt88t22uX.......... ..........Xu22t88tttX...........                                  ",
" ...........XtttttuiuX........... ...........XuiutttttX...........                                  ",
" ...........XuiiiuXXX............ ............XXXuiiiuX...........                                  ",
" ............XXXXX............... ...............XXXXX............                                  ",
"                                                                                                    ",
" ................................                                                                   ",
" ................................                                                                   ",
" ................................                                                                   ",
" ................................                                                                   ",
" ................................                                                                   ",
" ................................                                                                   ",
" ................................                                                                   ",
" ................................                                                                   ",
" ................................                                                                   ",
" ................................                                                                   ",
" .............X.XX.X.............                                                                   ",
" ............XoXOOXoX............                                                                   ",
" ............X@O##O@X............                                                                   ",
" ...........X%XXXXXX%X...........                                                                   ",
" ..........X%&&*****&%X..........                                                                   ",
" .........X%***XTTX***%X.........                                                                   ",
" ..........X&TX:XX:XT&X..........                                                                   ",
" ..........XTX:>::>:XTX..........                                                                   ",
" .........XT&X,@,,@,X&TX.........                                                                   ",
" .........X&%X;,,,,;X%&X.........                                                                   ",
" .........X%XXX;,,;XXX%X.........                                                                   ",
" ..........Xt22X88X2ttX..........                                                                   ",
" ..........XtX2O5wO2XtX..........                                                                   ",
" .........X%XX2=$5=2XX%X.........                                                                   ",
" ..........XXewX81XweXX..........                                                                   ",
" ...........XXewXXweXX...........                                                                   ",
" ...........X2XeXXeX2X...........                                                                   ",
" ...........X2tX22Xt2X...........                                                                   ",
" ..........X2t82tt28t2-..........                                                                   ",
" ..........X2822tt2282-..........                                                                   ",
" .........Xyuiuyiuyuiuy-.........                                                                   ",
" .........XXXXXX------X-.........                                                                   ",
"                                                                                                    "
};
