/* XPM */
static char *d4e8e4d8d1f74fabb706ad2929b72a92PEvpn3QsxWaQycqx[] = {
/* columns rows colors chars-per-pixel */
"100 130 71 1 ",
"  c None",
". c black",
"X c #C9AF2E",
"o c #E4C85E",
"O c #FFEB95",
"+ c #0052BC",
"@ c #D13752",
"# c #0090FF",
"$ c #E1BF1E",
"% c #FFE133",
"& c #FCFC5C",
"* c #D2A11E",
"= c #111111",
"- c #F8B898",
"; c #E8A088",
": c #001E55",
"> c #F7DFB7",
", c #B43B68",
"< c #FF73AE",
"1 c #D45785",
"2 c #FF91BF",
"3 c #F090A0",
"4 c #6DCFF6",
"5 c #DD6496",
"6 c #FCCC94",
"7 c #FFA5CA",
"8 c #4E65A2",
"9 c #BD7D1E",
"0 c gray82",
"q c #FEFEFE",
"w c #CECAE4",
"e c #FFE8F8",
"r c #EF84B0",
"t c #850434",
"y c #AD2155",
"u c #C93D6D",
"i c #FEEA94",
"p c #E3C75D",
"a c #C8AE2D",
"s c #008FFE",
"d c #D03651",
"f c #0051BB",
"g c #E0BE1D",
"h c #FEE032",
"j c #D1A01D",
"k c #FBFB5B",
"l c #E79F87",
"z c #F7B797",
"x c #101010",
"c c #001D54",
"v c #F6DEB6",
"b c #B33A67",
"n c #FE72AD",
"m c #FE90BE",
"M c #D35684",
"N c #6CCEF5",
"B c #EF8F9F",
"V c #DC6395",
"C c #FBCB93",
"Z c #BC7C1D",
"A c #4D64A1",
"S c #FEA4C9",
"D c #FDFDFD",
"F c #D0D0D0",
"G c #FEE7F7",
"H c #CDC9E3",
"J c #EE83AF",
"K c #AC2054",
"L c #C83C6C",
"P c #840333",
"I c #FCE404",
/* pixels */
"                                                                                                    ",
"                                                                                                    ",
"                                                                                                    ",
"                                                                                                    ",
"                                                                                                    ",
"                                                                                                    ",
"                                                                                                    ",
"                                                                                                    ",
"                                                                                                    ",
"                                                                                                    ",
"                                                                                                    ",
"                                                                                 . . .              ",
"                                                . . .                           .X.o.O.             ",
"               . . .                           .X.o.O.                          .+o@O#.             ",
"              .X.o.O.                          .+o@O#.                         .$.....              ",
"              .+o@O#.                         .$......                        .$%%$%%$.             ",
"             .$......                        .$%%$%%$%.                      .$&&&*.$.$.            ",
"            .$%%$%%$%.                      .$&&&*.$.$.                       .%$*=-.;.             ",
"           .$&&&*.$.$.                       .%$*=-.;.                        .$..-:>:              ",
"            .%$*=-.;..                       .$..-:>:                        .%.-.>+>+.             ",
"            .$..-->-.                       .%.-.>+>+.                      .%$..#->>-.             ",
"           .%.-.::>:.                      .%$..#->>-.                      .$.,<,.--.              ",
"          .%$..#->>-.                      .$.,<,.--.                       .$.12<,..               ",
"          .$.,<,.--.<.                     .$.12<,..                         ..,1,3o4.              ",
"          .$.555$..*5.                      ..,1,3o4.                          =6.,*#.              ",
"           ..77,$#89.                         =6.,*#.                          .0q.,.               ",
"            ....,$9..                         .0q.,.                          .1.0q.1.              ",
"           .7.we.,.e..                       .1.0q.1.                        .1r1.0q.1.             ",
"          .r7.we.r.w.r.                     .1r1.0q.1.                       .1rr1..1r=             ",
"          .1rr.we.e.r1.                     .1rr1..1r=                      =1r71r1171r.            ",
"          .1111.w.w.11.                    =1r71r1171r.                     =1711rr7711.            ",
"          .tyuuy.t.yuy.                   =yyuytyuuyty.                    =yyuytyuuyty.            ",
"           ...........                    =.==========.                    =.==========.            ",
"                                                                                                    ",
"                                                                                                    ",
"                                                                                                    ",
"                                                                                                    ",
"                                                                                                    ",
"                                                                                                    ",
"                                                                                                    ",
"                                                                                                    ",
"                                                                                                    ",
"                                                                                                    ",
"                                                                                                    ",
"                                               . . .                                                ",
"                                              .i.p.a.                           . . .               ",
"              . . .                           .sidpf.                          .i.p.a.              ",
"             .i.p.a.                           .....g.                         .sidpf.              ",
"             .sidpf.                          .ghhghhg.                        ......g.             ",
"             ......g.                        .g.g.jkkkg.                      .hghhghhg.            ",
"            .hghhghhg.                        .l.zxjgh.                       .g.g.jkkkg.           ",
"            .g.g.jkkkg.                        cvcz..g.                        .l.zxjgh.            ",
"            ..l.zxjgh.                        .fvfv.z.h.                        cvcz..g.            ",
"             .zvzz..g.                        .zvvzs..gh.                      .fvfv.z.h.           ",
"             .cvcc.z.h.                        .zz.bnb.g.                      .zvvzs..gh.          ",
"             .zvvzs..gh.                        ..bnmM.g.                       .zz.bnb.g.          ",
"            .n.zz.bnb.g.                       .NpBbMb..                         ..bnmM.g.          ",
"            .Vj..gVVV.g.                       .sjb.Cx                          .NpBbMb..           ",
"             .ZAsgbSS..                         .b.DF.                          .sjb.Cx             ",
"             ..Zgb....                         .M.DF.M.                          .b.DF.             ",
"            ..G.b.GH.S.                       .M.DF.MJM.                        .M.DF.M.            ",
"           .J.H.J.GH.SJ.                      xJM..MJJM.                       .M.DF.MJM.           ",
"           .MJ.G.GH.JJM.                     .JMSMMJMSJMx                      xJM..MJJM.           ",
"           .MM.H.H.MMMM.                     .MMSSJJMMSMx                     .JMSMMJMSJMx          ",
"           .KLK.P.KLLKP.                     .KPKLLKPKLKKx                    .KPKLLKPKLKKx         ",
"            ...........                      .xxxxxxxxxx.x                    .xxxxxxxxxx.x         ",
"                                                                                                    ",
"                                                                                                    ",
"                                                                                                    ",
"                                                                                                    ",
"                                                                                                    ",
"                                                                                                    ",
"                                                                                                    ",
"                                                                                                    ",
"               . . .                           . . .                                                ",
"              .X.o.X.                         .X.o.X.                                               ",
"              .+o@o+.                         .+o@o+.                                               ",
"             .$.....$.                       .$.....$.                                              ",
"            .$%%&&&&%$.                     .$%&&&&%%$.                                             ",
"           .$&&&III&&&$.                   .$&&&III&&&$.                                            ",
"            .%IIIIIII%.                     .%IIIIIII%.                                             ",
"           .q.II&&&II.                       .II&&&II.q.                                            ",
"            .%I&&&&&I%.                     .%I&&&&&I%.                                             ",
"           .%$I&III&I$%.                   .%$I&III&I$%.                                            ",
"           .$$IIIIIII$$.                   .$$IIIIIII$$.                                            ",
"            .$$$III$$$.                     .$$$III$$$.                                             ",
"             .$$$$$$$.q.                   .q.$$$$$$$.                                              ",
"              .......w.                     .w.......                                               ",
"             .r11111r.                       .r11111r.                                              ",
"             .rr777rr.                       .rr777rr.                                              ",
"            .rr7777rrr.                     .rrr7777rr.                                             ",
"            .rr7r77rrr.                     .rrr77r7rr.                                             ",
"            .rrr77r11y.                     .y11r77rrr.                                             ",
"            .rrrrryuy.                       .yuyrrrrr.                                             ",
"            .yuuuy...                         ...yuuuy.                                             ",
"             .....                               .....                                              ",
"                                                                                                    ",
"                                                                                                    ",
"                                                                                                    ",
"                                                                                                    ",
"                                                                                                    ",
"                                                                                                    ",
"                                                                                                    ",
"                                                                                                    ",
"                                                                                                    ",
"                                                                                                    ",
"                                                                                                    ",
"              . .. .                                                                                ",
"             .X.oo.X.                                                                               ",
"             .+o@@o+.                                                                               ",
"            .$......$.                                                                              ",
"           .$%%&&&&&%$.                                                                             ",
"          .$&&&.II.&&&$.                                                                            ",
"           .%I.;..;.I%.                                                                             ",
"           .I.;:;;:;.I.                                                                             ",
"          .I%.>+>>+>.%I.                                                                            ",
"          .%$.->>>>-.$%.                                                                            ",
"          .$...->>-...$.                                                                            ",
"           .r11.77.1rr.                                                                             ",
"           .r.1o4qo1.r.                                                                             ",
"          .$..1*#4*1..$.                                                                            ",
"           ..wq.7<.qw..                                                                             ",
"            ..wq..qw..                                                                              ",
"            .1.w..w.1.                                                                              ",
"            .1r.11.r1.                                                                              ",
"           .1r71rr17r1=                                                                             ",
"           .1711rr1171=                                                                             ",
"          .tyuytuytyuyt=                                                                            ",
"          ......======.=                                                                            ",
"                                                                                                    "
};
