/* XPM */
static char *_b7ce87df7844100aa612f462c76f2cae7jHJdP23DZp4AZJ[] = {
/* columns rows colors chars-per-pixel */
"90 41 200 2 ",
"   c None",
".  c #47292B",
"X  c #4C2B2C",
"o  c #46272A",
"O  c #522E2D",
"+  c #54302F",
"@  c #5C312F",
"#  c #492E31",
"$  c #4C3133",
"%  c #4B3639",
"&  c #523333",
"*  c #5C3431",
"=  c #5C3836",
"-  c #5F3D3A",
";  c #55393B",
":  c #623631",
">  c #653A34",
",  c #6C3C35",
"<  c #653E39",
"1  c #6C3F39",
"2  c #723D35",
"3  c #793F35",
"4  c #66423C",
"5  c #6C423C",
"6  c #6F4237",
"7  c #754136",
"8  c #7B4136",
"9  c #74433A",
"0  c #7A4539",
"q  c #79493B",
"w  c #75483F",
"e  c #594647",
"r  c #584F51",
"t  c #5A5B5E",
"y  c #5D5253",
"u  c #684641",
"i  c #694C4C",
"p  c #694844",
"a  c #744B43",
"s  c #7A4D43",
"d  c #724F49",
"f  c #7C5145",
"g  c #7C554C",
"h  c #74514C",
"j  c #675857",
"k  c #7D5A51",
"l  c #725E59",
"z  c #785D58",
"x  c #78625E",
"c  c #5E5E60",
"v  c #755E60",
"b  c #5C6063",
"n  c #646262",
"m  c #6C6665",
"M  c #726A67",
"N  c #716F6D",
"B  c #7D6765",
"V  c #687C7E",
"C  c #7D7C7A",
"Z  c #834639",
"A  c #884639",
"S  c #864B3C",
"D  c #8D4C3C",
"F  c #924E3E",
"G  c #994F3D",
"H  c #8B513F",
"J  c #87503E",
"K  c #96523E",
"L  c #9B513E",
"P  c #A5543F",
"I  c #854F42",
"U  c #8D5542",
"Y  c #8A5A4C",
"T  c #885748",
"R  c #945341",
"E  c #965943",
"W  c #9C5B43",
"Q  c #9A5A44",
"!  c #8A5D51",
"~  c #A55540",
"^  c #A85641",
"/  c #A25B44",
"(  c #AE5942",
")  c #AA5E48",
"_  c #B65C43",
"`  c #BC5F44",
"'  c #90604E",
"]  c #866157",
"[  c #8F685C",
"{  c #956B5C",
"}  c #976755",
"|  c #A56347",
" . c #AB6346",
".. c #A46549",
"X. c #A5684D",
"o. c #AC6648",
"O. c #B46245",
"+. c #BE6245",
"@. c #B06149",
"#. c #B8634B",
"$. c #B46D4B",
"%. c #BB6B49",
"&. c #B6704C",
"*. c #BB714D",
"=. c #A56C53",
"-. c #A86F57",
";. c #A9735D",
":. c #A6725B",
">. c #B77859",
",. c #976E60",
"<. c #9A7367",
"1. c #967D79",
"2. c #806768",
"3. c #A47363",
"4. c #AA7A65",
"5. c #AA7D6A",
"6. c #A77A69",
"7. c #C16547",
"8. c #C36748",
"9. c #C56949",
"0. c #C96E4B",
"q. c #C2734D",
"w. c #CD734E",
"e. c #C7784F",
"r. c #D0754D",
"t. c #C47850",
"y. c #CC7C52",
"u. c #C47F5B",
"i. c #D57B51",
"p. c #D97F53",
"a. c #D37B54",
"s. c #BB8367",
"d. c #AB8373",
"f. c #B98973",
"g. c #BE917B",
"h. c #AA816F",
"j. c #CC8056",
"k. c #CD865D",
"l. c #D38255",
"z. c #DC8354",
"x. c #DB855C",
"c. c #D48458",
"v. c #E18856",
"b. c #E58D59",
"n. c #EA915B",
"m. c #C78968",
"M. c #D68B60",
"N. c #DF8C63",
"B. c #D3926D",
"V. c #C1957D",
"C. c #CB9376",
"Z. c #D69A77",
"A. c #E08C60",
"S. c #E59365",
"D. c #EC9762",
"F. c #E69A6F",
"G. c #EC9B6B",
"H. c #E79668",
"J. c #E79D70",
"K. c #EDA174",
"L. c #EFA77C",
"P. c #E7A47B",
"I. c #F1AB7D",
"U. c #F0A778",
"Y. c #6E7F80",
"T. c #738181",
"R. c #7E8381",
"E. c #8B8B86",
"W. c #968586",
"Q. c #AE8E86",
"!. c #AB908A",
"~. c #AD9B99",
"^. c #96ACA8",
"/. c #93A5A0",
"(. c #ADA0A1",
"). c #C69A82",
"_. c #D5A386",
"`. c #D7A98E",
"'. c #DCA483",
"]. c #DEAE91",
"[. c #CEAA97",
"{. c #EEAD85",
"}. c #E7A982",
"|. c #F0AD83",
" X c #EAB08B",
".X c #F2B68E",
"XX c #EBBA98",
"oX c #F4BB94",
"OX c #CFB7AD",
"+X c #E1BEAB",
"@X c #DBC4B9",
"#X c #EEC2A3",
"$X c #F7C8A7",
"%X c #F8D1B6",
"&X c #D7CBC7",
"*X c #DCD3D1",
"=X c #F6DAC8",
"-X c #E2CEC4",
";X c #FBE5D5",
":X c #F6EBE5",
/* pixels */
"  . X # * > 9 0 0 0 0 0 0 0 0 0 0 9 9 7 7 7 , 7 w w q 0 0 0 0 0 0 0 0 0 9 7 7 > + $ t     t # X $ & & & & O X X . $ N ^.                            R.e . # & & & & $ X X X X r V   ",
"  X u ] { } ..| | | | | | | | | | | W R S 7 : a [ 4.;.X.| | | | | | | | / Q F 0 , = n     t # e B W.1.<.{ ' U 9 * $ N ^.                            R.e ; l W.1.<.,.' U H Z 8 z T.  ",
"  # ] g._.B.c.l.l.l.l.l.l.l.l.l.l.a.q.O.L 7 O g f.].Z.M.l.l.l.l.l.l.l.l.y.%._ K 0 5 m     t # v (.*X@X[._.B.j.| 6 $ N ^.                            R.e i W.&X&X+X`.Z.k.q.O.^ ,.    ",
"  & { _..XK.b.v.v.v.v.v.v.v.v.v.v.z.r.8.P 3 X g g.oXL.S.v.v.v.v.v.v.v.v.z.w.+.~ S a M     t # 2.OX:X=X$X.XU.n.&.q $ N ^.                            R.e i ~.:X;X%XoXI.D.v.r.+.3.E.  ",
"  O ' B.K.N.i.r.r.r.r.r.r.r.r.r.r.w.9.7.P 8 X f s.L.S.p.r.r.r.r.r.r.r.r.w.9.+.~ S 9 M     t # x [.=X$X.XU.G.n.&.q $ N ^.                            R.e i !.=X%XoXU.G.D.v.r.+.3.E.  ",
"  X U j.b.i.8.+.+.+.+.+.+.+.+.+.+.+.+.+.P 8 X q &.n.p.9.+.+.+.+.+.+.+.+.+.+.` ~ S 9 M     t # k ).$X.XK.n.n.n.&.q $ N ^.                            R.e u d.#XoXU.n.n.n.v.r.+.3.E.  ",
"  X S q.i.0.+.` ` ` ` ` ` ` ` ` ` ` ` ` P 3 X 7 o.p.w.8.` ` ` ` ` ` ` ` ` ` ` ~ S 9 M     t # g f..XU.D.n.n.n.&.q $ N ^.                            R.e 4 4. X|.G.n.n.n.v.r.+.3.E.  ",
"  X 0 O.0.8.+.` ` ` ` ` ` ` ` ` ` ` ` ` P 3 X , / 0.9.+.` ` ` ` ` ` ` ` ` ` ` ~ S 9 M     t # s >.K.G.D.n.n.n.&.q $ N ^.                            R.e < =.F.G.D.n.n.n.v.r.+.3.E.  ",
"  X 3 P _ _ _ _ _ _ _ _ _ _ _ _ _ _ _ _ P 8 X > F _ _ _ _ _ _ _ _ _ _ _ _ _ _ L Z 5 M     t # q &.n.n.n.n.n.n.&.q & N /.                            C e , | b.n.n.n.n.n.v.r.+.3.E.  ",
"  . : 8 D F L L L L L L L L L L L L L L D 7 * , S L L L L L L L L L L L G F A 8 , - n     t # q &.n.n.n.n.n.n.e.W 0 z C R.R.R.R.R.R.R.R.R.R.R.R.R.C B s D %.b.n.n.n.n.n.v.r.+.3.E.  ",
"  . O @ : , 0 0 0 0 0 0 0 0 0 0 0 0 0 0 0 7 , , 7 0 0 0 0 0 0 0 0 0 0 0 8 , @ @ O $ c     t # q &.n.n.n.n.n.n.i.%.~ I p e e e e e e e e e e e e e e s R O.w.b.n.n.n.n.n.v.r.+.3.E.  ",
"  X & 4 p s S S Z 0 7 , 5 s Y T T S S S S S S S S S S Z 0 7 , 9 f Y T I q , * @ O $ c     t # q &.n.n.n.n.n.n.l.9.^ U h i p u u u u u u u u u 4 < , S L #.i.b.n.n.n.n.n.v.r.+.3.E.  ",
"  X d <.5.;.$.o./ G 0 > 5 [ f.s.>.$.$.$.$.$.$.$.$.$. .W D 7 * s <.f.s.>.o.W D 8 , - n     t # q &.n.n.n.n.n.n.y. .R <.!.~.!.d.d.d.d.d.d.d.d.d.4.=.| Q K / q.b.n.n.n.n.n.v.r.+.3.E.  ",
"  $ [ _.XXP.b.i.9._ A @ u 5.XX XJ.b.b.b.b.b.b.b.b.v.r.+.P 8 X k g.XX{.H.z.w._ L Z 5 M     t # q &.n.n.n.n.n.n.t.Q s !.*X:X=X#X#X#X#X#X#X#X#X#X XF.z.$.H H $.b.n.n.n.n.n.v.r.+.3.E.  ",
"  & } Z.{.F.z.r.9._ A @ 4 4. XL.S.z.z.z.z.z.z.z.z.p.w.8.P 3 X g f..XK.A.i.0.+.~ S 9 M     t # q &.n.n.n.n.n.n.t.E s Q.-X;X%XoXoXoXoXoXoXoXoXoX|.G.b.$.S J $.b.n.n.n.n.n.v.r.+.3.E.  ",
"  X Y m.F.x.w.9.8._ A @ < =.F.S.p.0.0.0.0.0.0.0.0.0.9.+.P 3 X s >.K.A.i.0.8.+.~ S 9 M     t # q &.n.n.n.n.n.n.t.E s d.+X%XoXU.K.K.K.K.K.K.K.K.G.D.b.$.S J $.b.n.n.n.n.n.v.r.+.3.E.  ",
"  O H y.z.w.+.` ` _ A @ > | z.p.0.` ` ` ` ` ` ` ` ` ` ` P 3 X 0 $.b.i.9.` ` ` ~ S 9 M     t # q &.n.n.n.n.n.n.t.E w 4.].oXU.n.n.n.n.n.n.n.n.n.n.n.b.$.S S $.b.n.n.n.n.n.v.r.+.3.E.  ",
"  X S %.r.9.+.` ` _ A @ : K w.w.9.` ` ` ` ` ` ` ` ` ` ` P 3 X 7  .i.0.8.` ` ` ~ S 9 M     t # q &.n.n.n.n.n.n.t.E q ;.Z.I.G.n.n.n.n.n.n.n.n.n.n.n.b.$.S S $.b.n.n.n.n.n.v.r.+.3.E.  ",
"  X 0 ( 8.7.+.` ` _ A @ @ D +.8.+.` ` ` ` ` ` ` ` ` ` ` P 3 X , L 9.8.+.` ` ` ~ S 9 M     t # q &.n.n.n.n.n.n.t.E 0 X.M.G.D.n.n.n.n.n.n.n.n.n.n.n.b.$.S S $.b.n.n.n.n.n.v.r.7.3.E.  ",
"  X 2 G ^ ^ ( ( ( ^ Z : : Z ^ ( ( ( ( ( ( ( ( ( ( ( ( ( L 7 O , D ( ( ( ( ( ( K 0 5 m     t # 6 | y.y.l.l.l.l.$.U 9 W q.l.l.l.l.l.l.l.l.l.l.l.l.l.y...S S ..y.l.l.l.l.l.y.%.^ {     ",
"  . @ 2 8 A D F F D 8 > > 8 D F F F F F F F F F F F F F S 7 : , Z F F F F F F 0 , = n     t # * 9 U W | | | | E S 7 J W ..| | | | | | | | | | | | | U 0 0 U | | | | | | W D 8 z T.  ",
"  o . X O > 7 7 7 7 7 , , 7 7 7 7 7 7 7 7 7 7 7 7 7 7 7 7 7 , 7 7 7 7 7 7 7 7 > + $ c     t # . X O > 7 0 0 9 7 7 7 7 9 0 0 0 0 0 0 9 0 0 0 0 0 0 9 7 7 7 7 9 0 0 0 0 0 7 : O r V   ",
"  X - h Y Y E E E E E E E E E E E E R D Z 7 > a Y { } Q E E E E E E E E R H S 7 : & n     t # & p k Y E E E E E E E E E E E E R D S 7 , 5 T } } ' E E E E E E E E E R D 0 , + y V   ",
"  # k d.V.m.t.t.t.t.t.t.t.t.t.t.t.q.$.) G 7 @ g 5.).m.u.t.t.t.t.t.t.t.t.*.@.~ D 7 < m     t # p <.V.m.u.t.t.t.t.t.t.t.t.t.t.t.%. .P Z : 5 ,.).C.m.t.t.t.t.t.t.t.t.q.$.) K 0 > j Y.  ",
"  & ,.`.oXL.n.b.b.b.b.b.b.b.b.b.b.b.i.9.P 3 X k V.$X|.G.b.b.b.b.b.b.b.b.z.w.+.~ S 9 M     t # k V.$X|.G.b.b.b.b.b.b.b.b.b.b.b.p.0._ A @ u h.XX.XK.b.b.b.b.b.b.b.b.b.i.9.( F 7 l T.  ",
"  + ' Z.L.S.p.i.i.i.i.i.i.i.i.i.i.i.0.8.P 3 X f s.|.F.x.i.i.i.i.i.i.i.i.r.9.+.~ S a M     t # f s.|.F.x.i.i.i.i.i.i.i.i.i.i.i.w.9._ A @ 4 ;.}.K.N.i.i.i.i.i.i.i.i.i.0.8.( F 7 l T.  ",
"  X U k.S.p.9.9.9.9.9.9.9.9.9.9.9.9.8.+.P 3 X q >.G.x.w.9.9.9.9.9.9.9.9.8.7.+.~ S a M     t # q >.G.x.w.9.9.9.9.9.9.9.9.9.9.9.8.+._ A @ > X.S.A.i.9.9.9.9.9.9.9.9.9.8.+.( F 7 l T.  ",
"  O H q.z.w.+.` ` ` ` ` ` ` ` ` ` ` ` ` P 3 X 7 $.z.r.8.` ` ` ` ` ` ` ` ` ` ` ~ S 9 M     t # 7 $.z.r.8.` ` ` ` ` ` ` ` ` ` ` ` ` _ A @ > W z.i.0.` ` ` ` ` ` ` ` ` ` ` ( F 7 l T.  ",
"  X Z O.w.9.+.` ` ` ` ` ` ` ` ` ` ` ` ` P 3 X 2 / w.9.7.` ` ` ` ` ` ` ` ` ` ` ~ S 9 M     t # 2 / w.9.7.` ` ` ` ` ` ` ` ` ` ` ` ` _ A @ : K w.0.8.` ` ` ` ` ` ` ` ` ` ` ( F 7 l T.  ",
"  X 8 ^ +.+.` ` ` ` ` ` ` ` ` ` ` ` ` ` P 3 X > L +.+.+.` ` ` ` ` ` ` ` ` ` ` ~ S 9 M     t # > L +.+.+.` ` ` ` ` ` ` ` ` ` ` ` ` _ A @ @ D _ +.+.` ` ` ` ` ` ` ` ` ` ` ( F 7 l T.  ",
"  . > A G L ~ ~ ~ ~ ~ ~ ~ ~ ~ ~ ~ ~ ~ ~ G 7 @ , D ~ ~ ~ ~ ~ ~ ~ ~ ~ ~ ~ P L G A 2 < m     t # @ 8 G L P ~ ~ ~ ~ ~ ~ ~ ~ ~ ~ ~ ~ ~ P 0 : : Z P ~ ~ ~ ~ ~ ~ ~ ~ ~ ~ ~ L G D 8 > j Y.  ",
"  . O : 2 8 S S S S S S S S S S S S S S Z 7 > , 0 S S S S S S S S S S S Z 7 , : @ & n     t # O @ , 7 Z S S S S S S S S S S S S S S 7 , , 7 S S S S S S S S S S S S 8 2 : * O y V   ",
"  . X # * > 9 9 7 7 7 , 5 w w w q 0 0 0 0 0 0 0 0 9 9 7 7 7 , 7 w w q 0 7 : O X . $ t     t # X # & > 7 7 7 7 7 7 1 7 w w q 0 0 0 0 0 0 0 0 0 9 7 7 7 , 5 w w w q 7 > O X . . r V   ",
"  X u ] { } ..W R D 8 > 5 ! 4.;.=.| | | | | | | | | W R S 7 : a [ 4.;.X.W D 8 , : = n     t # - k ,.} ../ Q F Z , > T ,.4.-...| | | | | | | | W R D 8 > 5 ! 4.;.=.| R Z 2 > * j V   ",
"  # ] g._.B.c.e.#.^ Z : u 3.`.'.B.l.l.l.l.l.l.l.l.a.q.O.L 7 O g f.].Z.M.y.%.^ F 8 5 m     t # h d.`.Z.M.y.%._ D , & [ ).'.B.c.l.l.l.l.l.l.l.l.e.#.^ Z : u 3.`.'.B.a.9.( L Z , j T.  ",
"  & { _..XK.b.i.0._ A @ 4 5.XX{.F.v.v.v.v.v.v.v.v.z.r.8.P 3 X g g.oXL.S.z.w.+.~ S a M     t # g g.oXL.S.z.w.+.G > & { _..XK.b.v.v.v.v.v.v.v.v.i.0._ A @ 4 5.XX{.F.z.r.8.( F 7 l T.  ",
"  O ' B.K.N.i.0.8._ A @ 4 :.P.F.x.r.r.r.r.r.r.r.r.w.9.7.P 3 X f s.L.S.p.w.9.+.~ S 9 M     t # f s.L.S.p.w.9.+.G > O ' B.K.N.i.r.r.r.r.r.r.r.r.0.8._ A @ 4 :.P.F.x.w.9.7.( F 7 l T.  ",
"  X U j.b.i.8.+.+._ A @ > ..b.z.w.+.+.+.+.+.+.+.+.+.+.+.P 3 X q &.n.p.9.+.+.` ~ S 9 M     t # q &.n.p.9.+.+.` G > X U j.b.i.8.+.+.+.+.+.+.+.+.+.+._ A @ > ..b.z.w.+.+.+.( F 7 l T.  ",
"  X S q.i.0.+.` ` _ A @ > Q a.r.9.` ` ` ` ` ` ` ` ` ` ` P 3 X 7 o.p.w.8.` ` ` ~ S 9 M     t # 7 o.p.w.8.` ` ` G > X S q.i.0.+.` ` ` ` ` ` ` ` ` ` _ A @ > Q a.r.9.` ` ` ( F 7 l T.  ",
"  X 0 O.0.8.+.` ` _ A @ * F 9.9.8.` ` ` ` ` ` ` ` ` ` ` P 3 X , / 0.9.+.` ` ` ~ S 9 M     t # , / 0.9.+.` ` ` G > X 0 O.0.8.+.` ` ` ` ` ` ` ` ` ` _ A @ * F 9.9.8.` ` ` ( F 7 l T.  ",
"  $ q / #.#.#.#.#.@.S = = S @.#.#.#.#.#.#.#.#.#.#.#.#.#./ q $ 1 R #.#.#.#.#.#./ I a N     b % 1 R #.#.#.#.#.#.R 1 $ q / #.#.#.#.#.#.#.#.#.#.#.#.#.@.S = = S @.#.#.#.#.#.) U w x     "
};
