/* XPM */
static char *_c3677bd8f614976cf6c3755f6dad1f7q9t3FUhgTh4Qf8nL[] = {
/* columns rows colors chars-per-pixel */
"20 20 147 2 ",
"   c #C26547",
".  c #BF6245",
"X  c #BE6145",
"o  c #BD6044",
"O  c #A6543F",
"+  c #793F35",
"@  c #4D2A2B",
"#  c #79493A",
"$  c #B7724F",
"%  c #E8915E",
"&  c #BC5F44",
"*  c #744337",
"=  c #AC6547",
"-  c #DA7F52",
";  c #6F3D35",
":  c #A05841",
">  c #C96E4B",
",  c #B75D43",
"<  c #A3533F",
"1  c #794035",
"2  c #4F2C2C",
"3  c #6B3933",
"4  c #944D3B",
"5  c #99513E",
"6  c #9A513E",
"7  c #8E4C3C",
"8  c #754036",
"9  c #5C3431",
"0  c #6D3C35",
"q  c #86483A",
"w  c #7C4539",
"e  c #7E463A",
"r  c #7A4439",
"t  c #724038",
"y  c #693C36",
"u  c #6F3F37",
"i  c #774338",
"p  c #854F3E",
"a  c #844C3D",
"s  c #81493B",
"d  c #7D4539",
"f  c #744138",
"g  c #6C3D36",
"h  c #6E413A",
"j  c #7B4D43",
"k  c #88584C",
"l  c #895748",
"z  c #885343",
"x  c #874F3E",
"c  c #864F3E",
"v  c #B36F4E",
"b  c #AC6548",
"n  c #A25A43",
"m  c #964F3E",
"M  c #7D4438",
"N  c #653833",
"B  c #6B433D",
"V  c #916659",
"C  c #B78873",
"Z  c #BA846A",
"A  c #B77859",
"S  c #B46E4B",
"D  c #B26C4B",
"F  c #E38F5D",
"G  c #D57D52",
"H  c #C56C4A",
"J  c #B05A42",
"K  c #864639",
"L  c #5D322F",
"P  c #684541",
"I  c #A77F6E",
"U  c #E6B99B",
"Y  c #ECB18C",
"T  c #E79D70",
"R  c #E28C59",
"E  c #E08957",
"W  c #DD8557",
"Q  c #D2774E",
"!  c #C66A49",
"~  c #B55B42",
"^  c #884639",
"/  c #5C312F",
"(  c #67423D",
")  c #A87964",
"_  c #E9B08B",
"`  c #ECA87F",
"'  c #E49367",
"]  c #DC8153",
"[  c #CD724E",
"{  c #C06446",
"}  c #653E38",
"|  c #A46D54",
" . c #E49B6F",
".. c #D67F58",
"X. c #CA6F4B",
"o. c #643A33",
"O. c #A06145",
"+. c #DD8756",
"@. c #613731",
"#. c #96563F",
"$. c #CD764F",
"%. c #CE724D",
"&. c #C46848",
"*. c #5E332F",
"=. c #8D4C3B",
"-. c #BD6446",
";. c #AD5942",
":. c #AE5942",
">. c #A85641",
",. c #834539",
"<. c #603430",
"1. c #8F4D3D",
"2. c #914E3E",
"3. c #8E4C3D",
"4. c #7A4338",
"5. c #673A34",
"6. c #754239",
"7. c #744239",
"8. c #714038",
"9. c #945944",
"0. c #965943",
"q. c #955843",
"w. c #905240",
"e. c #8A4D3D",
"r. c #81463A",
"t. c #734037",
"y. c #653934",
"u. c #744840",
"i. c #895B4F",
"p. c #9A6A59",
"a. c #C37A53",
"s. c #C47850",
"d. c #C2764F",
"f. c #B56949",
"g. c #A95C43",
"h. c #944E3D",
"j. c #764036",
"k. c #58312F",
"l. c #7A524A",
"z. c #A87C6A",
"x. c #CD9D83",
"c. c #E78E59",
"v. c #E48B58",
"b. c #D47950",
"n. c #7E5950",
"m. c #C0957E",
"M. c #F7C4A0",
/* pixels */
"  . . . . . . . . . . . X o O + @ # $ % ",
"X & & & & & & & & & & & & & O + @ * = - ",
"o & & & & & & & & & & & & & O + @ ; : > ",
", , , , , , , , , , , , , , < 1 2 3 4 , ",
"5 6 6 6 6 6 6 6 6 6 6 6 6 6 7 8 9 0 q 6 ",
"w e e e e e e e e e e e e e r t y u i e ",
"p a s d f g h j k l z x x x x x x x x c ",
"v b n m M N B V C Z A S S S S S S S S D ",
"F G H J K L P I U Y T R R R R R R R R E ",
"W Q ! ~ ^ / ( ) _ ` ' ] ] ] ] ] ] ] ] - ",
"[ ! { ~ ^ / } |  .' ..X.X.X.X.X.X.X.X.> ",
". & & ~ ^ / o.O.+.- > & & & & & & & & & ",
"X & & ~ ^ / @.#.$.%.&.& & & & & & & & & ",
"o & & ~ ^ / *.=.-.  . & & & & & & & & & ",
";.:.:.>.,.<.<.,.>.:.:.:.:.:.:.:.:.:.:.:.",
"1.2.2.3.4.5.5.4.3.2.2.2.2.2.2.2.2.2.2.2.",
"t 6.6.7.8.u u 8.7.6.6.6.6.6.6.6.6.6.6.6.",
"9.0.0.0.0.0.0.0.0.0.0.q.w.e.r.t.y.u.i.p.",
"a.s.s.s.s.s.s.s.s.s.s.d.f.g.h.j.k.l.z.x.",
"% c.c.c.c.c.c.c.c.c.c.v.b.&.O + @ n.m.M."
};
